<svg width="1310" height="1024" viewBox="0 0 1310 1024" fill="none" xmlns="http://www.w3.org/2000/svg">
<path fill-rule="evenodd" clip-rule="evenodd" d="M653.969 0C767.336 0 872.123 36.5211 957.146 98.35C1125.8 56.6875 1254.85 66.7769 1295.93 137.567L1299.11 143.517C1333.53 214.069 1278.99 325.806 1164.1 445.55C1166.93 467.303 1168.42 489.479 1168.42 512C1168.42 794.77 938.092 1024 653.969 1024C535.338 1024 426.11 984.004 339.086 916.867C181.443 953.747 60.4017 944.071 16.9692 880.233L13.3855 874.517C-26.996 804.892 26.2437 691.285 142.701 569.1C142.793 569.918 142.907 570.733 143.003 571.55C140.729 552.013 139.519 532.144 139.519 512C139.519 229.232 369.848 0.00233452 653.969 0ZM1082.53 523.05C1000.47 594.654 899.618 666.586 785.747 732.017C668.93 799.139 553.007 851.03 447.519 886C508.761 919.556 579.12 938.666 653.969 938.667C887.026 938.667 1076.64 753.584 1082.53 523.05ZM165.242 672.267C127.735 717.503 104.438 756.493 93.2826 786.883C78.2797 827.764 86.662 841.984 129.589 849.467C161.236 854.98 206.117 854.434 263.259 845.05C220.079 794.922 186.462 736.4 165.242 672.267ZM653.969 85.3333C417.202 85.3357 225.261 276.36 225.261 512C225.261 634.75 277.366 745.376 360.739 823.217C473.811 791.907 606.719 736.352 742.876 658.117C875.991 581.628 988.698 496.985 1071.96 416.8C1028.49 226.987 857.856 85.3333 653.969 85.3333ZM1179.72 162.617C1146.19 156.773 1097.8 157.709 1035.7 168.783C1081.51 219.217 1117.35 278.773 1140.18 344.383C1179.95 297.188 1204.5 256.615 1216.03 225.2C1231.03 184.327 1222.66 170.102 1179.72 162.617Z" fill="#0037FF"/>
</svg>
